<svg width="1024" height="1024" xmlns="http://www.w3.org/2000/svg" class="icon">
 <defs>
  <style type="text/css"/>
 </defs>
 <g>
  <title>background</title>
  <rect fill="none" id="canvas_background" height="402" width="582" y="-1" x="-1"/>
 </g>
 <g>
  <title>Layer 1</title>
  <path transform="rotate(45 512.0000000000002,511.9999999999999) " id="svg_1" d="m512,64c247.424,0 448,200.576 448,448s-200.576,448 -448,448s-448,-200.576 -448,-448s200.576,-448 448,-448zm0,64c-212.077,0 -384,171.923 -384,384s171.923,384 384,384s384,-171.923 384,-384s-171.923,-384 -384,-384zm124.396,214.368c12.492,-12.49 32.744,-12.49 45.236,0c12.49,12.492 12.49,32.744 0,45.236l-124.397,124.396l124.397,124.396c12.49,12.492 12.49,32.744 0,45.236c-12.492,12.49 -32.744,12.49 -45.236,0l-124.396,-124.397l-124.396,124.397c-12.492,12.49 -32.744,12.49 -45.236,0c-12.49,-12.492 -12.49,-32.744 0,-45.236l124.397,-124.396l-124.397,-124.396c-12.49,-12.492 -12.49,-32.744 0,-45.236c12.492,-12.49 32.744,-12.49 45.236,0l124.396,124.397l124.396,-124.397z"/>
 </g>
</svg>
