<svg t="1617117118056" class="icon" viewBox="0 0 1024 1024" version="1.1" xmlns="http://www.w3.org/2000/svg" p-id="2101" width="200" height="200"><path d="M512.4 923.4c-107.5 0-209-41.5-285.9-116.7-77-75.4-120.6-176.2-122.7-284-1.1-55.2 8.6-108.9 29-159.8 19.6-49.1 48.2-93.4 85-131.7 36.8-38.3 79.9-68.6 128.2-90.2 50-22.3 103.3-34.2 158.5-35.3 2.8-0.1 5.5-0.1 8.3-0.1 107.5 0 209 41.5 285.9 116.7 77 75.4 120.6 176.2 122.7 284 1.1 55.2-8.6 108.9-29 159.8-19.6 49.1-48.2 93.4-85 131.7-36.8 38.3-79.9 68.6-128.2 90.2-50 22.3-103.3 34.2-158.5 35.3-2.7 0-5.5 0.1-8.3 0.1z m0.4-789.7c-2.6 0-5.2 0-7.7 0.1-210 4.2-377.4 178.4-373.2 388.4C136 728 306.7 895.5 512.5 895.5c2.6 0 5.2 0 7.7-0.1 210-4.2 377.4-178.4 373.2-388.4-4.1-205.9-174.9-373.3-380.6-373.3z" fill="#263554" p-id="2102"></path><path d="M513.1 241.9c9.9 0 18 8.1 18 18v509.5c0 9.9-8.1 18-18 18s-18-8.1-18-18V259.9c0-9.9 8.1-18 18-18z" fill="#263554" p-id="2103"></path><path d="M785.7 514.4c0-9.9-8.1-18-18-18H258.2c-9.9 0-18 8.1-18 18s8.1 18 18 18h509.5c9.9 0 18-8.1 18-18z" fill="#263554" p-id="2104"></path></svg>
