<svg t="1617113867781" class="icon" viewBox="0 0 1024 1024" version="1.1" xmlns="http://www.w3.org/2000/svg" p-id="3294" width="200" height="200"><path d="M146.571481 49.951219 347.295185 49.951219C388.825594 49.951219 422.4 83.45593 422.4 125.058766L422.4 349.47782C422.4 390.977141 388.764036 424.585365 347.295185 424.585365L146.571481 424.585365C105.041073 424.585365 71.466667 391.080655 71.466667 349.47782L71.466667 125.058766C71.466667 83.559445 105.10263 49.951219 146.571481 49.951219ZM21.333333 349.47782C21.333333 418.650511 77.335661 474.536585 146.571481 474.536585L347.295185 474.536585C416.483543 474.536585 472.533333 418.533018 472.533333 349.47782L472.533333 125.058766C472.533333 55.886075 416.531006 0 347.295185 0L146.571481 0C77.383122 0 21.333333 56.003567 21.333333 125.058766L21.333333 349.47782Z" p-id="3295"></path><path d="M146.571481 599.414635 347.295185 599.414635C388.825594 599.414635 422.4 632.919345 422.4 674.52218L422.4 898.941233C422.4 940.440555 388.764036 974.048781 347.295185 974.048781L146.571481 974.048781C105.041073 974.048781 71.466667 940.54407 71.466667 898.941233L71.466667 674.52218C71.466667 633.022859 105.10263 599.414635 146.571481 599.414635ZM21.333333 898.941233C21.333333 968.113924 77.335661 1024 146.571481 1024L347.295185 1024C416.483543 1024 472.533333 967.996433 472.533333 898.941233L472.533333 674.52218C472.533333 605.349489 416.531006 549.463415 347.295185 549.463415L146.571481 549.463415C77.383122 549.463415 21.333333 605.466982 21.333333 674.52218L21.333333 898.941233Z" p-id="3296"></path><path d="M998.933333 149.853658C1012.777271 149.853658 1024 138.671697 1024 124.878049 1024 111.0844 1012.777271 99.902439 998.933333 99.902439L572.8 99.902439C558.956062 99.902439 547.733333 111.0844 547.733333 124.878049 547.733333 138.671697 558.956062 149.853658 572.8 149.853658L998.933333 149.853658Z" p-id="3297"></path><path d="M998.933333 274.731708C1012.777271 274.731708 1024 263.549745 1024 249.756098 1024 235.962449 1012.777271 224.780489 998.933333 224.780489L572.8 224.780489C558.956062 224.780489 547.733333 235.962449 547.733333 249.756098 547.733333 263.549745 558.956062 274.731708 572.8 274.731708L998.933333 274.731708Z" p-id="3298"></path><path d="M998.933333 399.609756C1012.777271 399.609756 1024 388.427795 1024 374.634146 1024 360.840497 1012.777271 349.658537 998.933333 349.658537L572.8 349.658537C558.956062 349.658537 547.733333 360.840497 547.733333 374.634146 547.733333 388.427795 558.956062 399.609756 572.8 399.609756L998.933333 399.609756Z" p-id="3299"></path><path d="M998.933333 674.341463C1012.777271 674.341463 1024 663.159503 1024 649.365854 1024 635.572205 1012.777271 624.390244 998.933333 624.390244L572.8 624.390244C558.956062 624.390244 547.733333 635.572205 547.733333 649.365854 547.733333 663.159503 558.956062 674.341463 572.8 674.341463L998.933333 674.341463Z" p-id="3300"></path><path d="M998.933333 799.219511C1012.777271 799.219511 1024 788.037551 1024 774.243902 1024 760.450255 1012.777271 749.268292 998.933333 749.268292L572.8 749.268292C558.956062 749.268292 547.733333 760.450255 547.733333 774.243902 547.733333 788.037551 558.956062 799.219511 572.8 799.219511L998.933333 799.219511Z" p-id="3301"></path><path d="M998.933333 924.097562C1012.777271 924.097562 1024 912.915599 1024 899.121952 1024 885.328303 1012.777271 874.146342 998.933333 874.146342L572.8 874.146342C558.956062 874.146342 547.733333 885.328303 547.733333 899.121952 547.733333 912.915599 558.956062 924.097562 572.8 924.097562L998.933333 924.097562Z" p-id="3302"></path></svg>
