<svg xmlns="http://www.w3.org/2000/svg" width="24" height="24" viewBox="0 0 24 24"><path d="M3 19l1 3h16l1-3h-18zm14.015-2h-2.443c3.507-4.616 3.37-8.547 1.021-8.909-1.355-.209-2.593.597-2.593 2.226v6.683h-2v-6.683c0-1.63-1.238-2.435-2.593-2.226-2.348.362-2.485 4.293 1.022 8.909h-2.444c-2.909-4.446-2.688-8.076-1.027-9.815.737-.772 1.772-1.185 2.813-1.185.79 0 1.565.251 2.229.671 0-.5-.098-.922-.471-1.326-.328-.354-.529-.825-.529-1.345 0-1.104.896-2 2-2s2 .896 2 2c0 .52-.201.991-.529 1.345-.374.405-.471.826-.471 1.326.664-.419 1.44-.671 2.23-.671 1.038 0 2.073.412 2.812 1.185 1.66 1.739 1.882 5.369-1.027 9.815zm-12.194 0h-2.671c-1.481-1.91-2.15-3.845-2.15-5.496 0-1.095.303-2.064.827-2.819.883-1.27 2.321-1.815 3.954-1.625-.384.549-.671 1.205-.843 1.951-.618.055-1.126.324-1.468.815-1.004 1.444-.482 4.386 2.351 7.174zm19.179-5.496c0 1.651-.669 3.586-2.15 5.496h-2.671c2.833-2.788 3.355-5.73 2.352-7.174-.342-.491-.851-.76-1.469-.815-.172-.746-.459-1.401-.843-1.951 1.633-.189 3.071.355 3.954 1.625.524.754.827 1.724.827 2.819z"/></svg>