<svg  class="icon" viewBox="0 0 1024 1024" version="1.1" xmlns="http://www.w3.org/2000/svg"  width="200" height="200"><path d="M353.243 159.915l457.285 282.44c41.35 25.54 54.167 79.765 28.627 121.114a88 88 0 0 1-29.316 29.048L352.554 869.194c-41.582 25.159-95.686 11.845-120.845-29.737A88 88 0 0 1 219 793.903V234.785c0-48.6 39.399-88 88-88a88 88 0 0 1 46.243 13.13zM283 270.829v487.104c0 24.3 19.7 44 44 44a44 44 0 0 0 22.785-6.359l404.209-244.673c18.899-11.44 24.945-36.034 13.506-54.932a40 40 0 0 0-13.223-13.333L350.096 233.378c-20.684-12.756-47.791-6.329-60.547 14.355A44 44 0 0 0 283 270.829z"></path></svg>
