<svg t="1617114342945" class="icon" viewBox="0 0 1024 1024" version="1.1" xmlns="http://www.w3.org/2000/svg" p-id="2526" width="200" height="200"><path d="M279.3 892.6c-17.2 0-31.1-13.9-31.1-31.1v-699c0-17.1 14-31.1 31.1-31.1 6.4 0 12.6 2 17.9 5.8l491.5 349.5c8.2 5.8 13.1 15.3 13.1 25.3s-4.9 19.5-13.1 25.3L297.2 886.9c-5.3 3.7-11.5 5.7-17.9 5.7z m0-733.2c-1 0-3.1 0.8-3.1 3.1v699.1c0 2.3 2.1 3.1 3.1 3.1 0.6 0 1.1-0.2 1.7-0.6l491.5-349.5c1.1-0.8 1.3-1.8 1.3-2.5s-0.2-1.7-1.3-2.5L281 160c-0.6-0.4-1.1-0.6-1.7-0.6z" fill="#263554" p-id="2527"></path></svg>
