<svg  class="icon" viewBox="0 0 1024 1024" version="1.1" xmlns="http://www.w3.org/2000/svg" width="200" height="200"><path d="M139.496 187.032c97.893-101 259.482-98.77 358.607 0.355l5.3 5.3c4.686 4.687 12.284 4.687 16.97 0.001l6.274-6.273c98.929-98.928 259.483-98.77 358.608 0.355 56.814 56.814 81.126 143.669 72.904 226.087-13.477 135.08-137.592 293.083-372.344 474.007-43.136 33.244-103.25 33.273-146.417 0.069-234.762-180.58-358.905-338.79-372.427-474.634-8.185-82.235 16.868-167.844 72.525-225.267z m45.606 45.123c-42.425 44.966-61.586 114.173-53.63 179.676C144.935 522.707 259.988 660.09 476.63 823.98c21.362 16.16 50.848 16.203 72.257 0.106C765.275 661.385 880.43 523.976 894.351 411.86c8.158-65.702-9.75-136.407-53.709-180.365-73.36-73.36-191.78-74.154-265.968-2.336l-45.3 45.269c-9.379 9.362-24.57 9.36-33.946-0.006l-42.125-42.128c-74.1-74.1-195.585-77.104-268.2-0.14z"></path></svg>
