<svg t="1617114482407" class="icon" viewBox="0 0 1024 1024" version="1.1" xmlns="http://www.w3.org/2000/svg" p-id="2951" width="200" height="200"><path d="M512.5 879L216.2 571.3c-25.8-26.8-47.9-55.8-65.9-86.3-27.2-46.2-41.3-88.5-42.1-125.8-1.1-56.7 19.9-110.4 59.1-151.2 39.3-40.9 92.1-64 148.8-65.1h4.3c45.5 0 88.8 14.2 125.4 41.1 28.6 21 51.2 48.3 66.1 79.9 34.2-71.7 106.5-119.3 187.4-120.9h4.3c55.8 0 108.5 21.5 148.4 60.6 40 39.1 62.6 91.5 63.7 147.4C917 415.7 883 496.9 833 548.6L512.5 879zM320.4 170.7h-3.7c-49.2 1-95.1 21.1-129.1 56.5-34.1 35.5-52.3 82.1-51.3 131.3 0.6 32.5 13.5 70.2 38.2 112.2 16.9 28.6 37.7 55.9 61.9 81.1l276.2 286.8L813 528.9c44.5-46 75.9-120.7 74.8-177.6-2-99.5-84.6-180.5-184.1-180.5H700c-78.1 1.6-147 52.4-171.4 126.6-2.4 7.2-9 12-16.6 12-7.6 0-14.3-4.8-16.6-12-24.9-75.8-95.2-126.7-175-126.7z" fill="#263554" p-id="2952"></path></svg>
