<svg viewBox="0 0 1024 1024"  xmlns="http://www.w3.org/2000/svg"  width="24" height="24"><path d="M1006.345 572.028V112.993s0-35.31-21.186-67.09C971.034 21.186 942.786 0 889.82 0H134.179S17.655 0 17.655 116.524v773.297s0 35.31 21.186 67.09c17.656 24.717 45.904 45.903 95.338 45.903h755.642s116.524 0 116.524-116.524V572.028zM949.848 889.82c-3.53 56.496-56.496 56.496-56.496 56.496H127.117c-7.062 0-24.717-7.062-35.31-17.655-14.124-14.124-17.655-31.78-17.655-38.841V116.524c3.53-56.496 56.496-56.496 56.496-56.496h766.235c7.062 0 24.717 7.062 35.31 17.655 14.124 14.124 17.655 31.78 17.655 38.841v773.297z"></path><path d="M236.58 451.972c3.53-14.124 3.53-24.717 3.53-31.779 0-7.062 0-17.655-3.53-31.78 17.654 3.532 38.84 3.532 52.965 3.532h45.903c17.655 0 31.78 0 45.904-3.531-3.531 24.717-7.062 49.434-7.062 70.62V677.96c17.655-21.187 35.31-38.842 52.965-56.497 7.062 21.186 14.124 42.372 21.186 52.966-38.841 31.779-77.682 70.62-120.055 120.055-10.593-17.655-21.186-31.78-31.78-49.435 17.656-17.655 28.25-35.31 28.25-52.965V448.44h-35.311c-21.186 0-35.31 0-52.966 3.531z m49.434-211.862c17.655-7.062 35.31-14.124 49.434-24.717 10.593 31.78 31.78 63.559 60.028 95.338-17.655 7.062-35.31 14.124-49.435 24.717-24.717-45.903-45.903-77.682-60.027-95.338z m141.241 180.083c3.531-14.124 3.531-24.717 3.531-31.78s0-17.654-3.53-31.779c28.247 3.532 45.903 3.532 52.965 3.532h155.365c10.593 0 28.248 0 49.435-3.532-3.531 14.125-3.531 24.718-3.531 31.78 0 7.062 0 17.655 3.53 31.78-14.123-3.532-28.248-3.532-45.903-3.532H480.221c-17.655 0-35.31 0-52.966 3.531z m21.186-127.117c0-14.124 3.531-24.717 3.531-31.78 0-7.062 0-17.655-3.53-31.779 21.186 3.531 38.84 3.531 49.434 3.531h233.048c10.593 0 28.248 0 52.966-3.53-3.531 17.654-3.531 35.31-3.531 52.965v459.034c0 21.186-7.062 35.31-21.187 42.373s-42.372 17.655-81.213 21.186c-3.531-24.717-14.125-45.904-31.78-67.09 17.655 3.531 31.78 3.531 42.373 3.531 14.124 0 24.717 0 28.248-3.53 3.531-3.532 7.062-10.594 7.062-21.187V289.545H501.407c-14.124 0-31.78 3.53-52.966 3.53z m7.062 459.034c3.531-17.655 3.531-35.31 3.531-49.434V519.062c0-14.124 0-24.717-3.53-42.372 17.655 3.53 35.31 3.53 49.434 3.53h98.869c17.655 0 35.31 0 52.965-3.53-3.53 14.124-3.53 28.248-3.53 45.903V677.96c0 14.124 0 28.248 3.53 49.434h-52.965V681.49h-98.87v31.78c0 10.593 0 24.717 3.532 38.841-10.593 0-21.186-3.53-24.717-3.53-3.531 0-14.124 3.53-28.249 3.53z m148.304-222.455h-98.87v112.993h98.87V529.655z"></path></svg>
