<svg t="1617114414705" class="icon" viewBox="0 0 1024 1024" version="1.1" xmlns="http://www.w3.org/2000/svg" p-id="2810" width="200" height="200"><path d="M426.4 486.9H149c-26.1 0-47.3-21.2-47.3-47.3V162.2c0-26.1 21.2-47.3 47.3-47.3h277.3c26.1 0 47.3 21.2 47.3 47.3v277.3c0 26.1-21.2 47.4-47.2 47.4zM149 143c-10.6 0-19.3 8.6-19.3 19.3v277.3c0 10.6 8.6 19.3 19.3 19.3h277.3c10.6 0 19.3-8.6 19.3-19.3V162.2c0-10.6-8.6-19.3-19.3-19.3H149zM875 486.9H597.6c-26.1 0-47.3-21.2-47.3-47.3V162.2c0-26.1 21.2-47.3 47.3-47.3H875c26.1 0 47.3 21.2 47.3 47.3v277.3c-0.1 26.1-21.3 47.4-47.3 47.4zM597.6 143c-10.6 0-19.3 8.6-19.3 19.3v277.3c0 10.6 8.6 19.3 19.3 19.3H875c10.6 0 19.3-8.6 19.3-19.3V162.2c0-10.6-8.6-19.3-19.3-19.3H597.6zM426.4 919.7H149c-26.1 0-47.3-21.2-47.3-47.3V595.1c0-26.1 21.2-47.3 47.3-47.3h277.3c26.1 0 47.3 21.2 47.3 47.3v277.3c0 26.1-21.2 47.3-47.2 47.3zM149 575.8c-10.6 0-19.3 8.6-19.3 19.3v277.3c0 10.6 8.6 19.3 19.3 19.3h277.3c10.6 0 19.3-8.6 19.3-19.3V595.1c0-10.6-8.6-19.3-19.3-19.3H149zM875 919.7H597.6c-26.1 0-47.3-21.2-47.3-47.3V595.1c0-26.1 21.2-47.3 47.3-47.3H875c26.1 0 47.3 21.2 47.3 47.3v277.3c-0.1 26.1-21.3 47.3-47.3 47.3zM597.6 575.8c-10.6 0-19.3 8.6-19.3 19.3v277.3c0 10.6 8.6 19.3 19.3 19.3H875c10.6 0 19.3-8.6 19.3-19.3V595.1c0-10.6-8.6-19.3-19.3-19.3H597.6z" fill="#263554" p-id="2811"></path></svg>
