<svg  class="icon" viewBox="0 0 1024 1024" version="1.1" xmlns="http://www.w3.org/2000/svg" width="200" height="200"><path d="M514.6 927.2c-228.1 0-413.7-185.6-413.7-413.7S286.5 99.8 514.6 99.8c24.7 0 49.3 2.2 73.4 6.5 22.5 4 37.5 25.6 33.5 48.1s-25.6 37.5-48.1 33.5c-19.2-3.5-39-5.2-58.8-5.2-182.4 0-330.8 148.4-330.8 330.8s148.4 330.8 330.8 330.8 330.8-148.4 330.8-330.8c0-58.5-15.5-116-44.7-166.2-11.5-19.8-4.8-45.2 14.9-56.7 19.8-11.5 45.1-4.8 56.7 14.9 36.6 62.9 56 134.8 56 208 0 228.2-185.6 413.7-413.7 413.7z" fill="#333333" ></path><path d="M514.6 692.3c-98.6 0-178.8-80.2-178.8-178.8S416 334.7 514.6 334.7c98.6 0 178.8 80.2 178.8 178.8s-80.2 178.8-178.8 178.8z m0-274.6c-52.9 0-95.9 43-95.9 95.9s43 95.9 95.9 95.9c52.9 0 95.9-43 95.9-95.9s-43.1-95.9-95.9-95.9z" fill="#333333" ></path><path d="M646.8 592.2c-3 0-6-0.3-9-1-22.3-5-36.5-27.1-31.5-49.4l76.5-345.5c2.7-12.3 10.9-22.7 22.2-28.3l134-65.6c20.6-10 45.4-1.5 55.5 19 10.1 20.6 1.6 45.4-19 55.5l-116.1 56.8-72.2 326c-4.3 19.3-21.4 32.5-40.4 32.5z" fill="#333333"></path></svg>
