<svg class="icon" viewBox="0 0 1024 1024" version="1.1" xmlns="http://www.w3.org/2000/svg"  width="200" height="200"><path d="M744.533333 548.266667L215.466667 896c-19.2 12.8-46.933333 8.533333-59.733334-12.8-4.266667-6.4-6.4-14.933333-6.4-23.466667V164.266667c0-23.466667 19.2-42.666667 42.666667-42.666667 8.533333 0 17.066667 2.133333 23.466667 6.4l529.066666 347.733333c19.2 12.8 25.6 38.4 12.8 59.733334l-12.8 12.8z" ></path><path d="M800 104.533333c40.533333 0 74.666667 34.133333 74.666667 74.666667v661.333333c0 40.533333-34.133333 74.666667-74.666667 74.666667S725.333333 881.066667 725.333333 840.533333v-661.333333c0-40.533333 34.133333-74.666667 74.666667-74.666667z" ></path></svg>
