<svg class="icon" viewBox="0 0 1024 1024" version="1.1" xmlns="http://www.w3.org/2000/svg"  width="200" height="200"><path d="M440.773441 324.922866v-50.217829c81.177807-71.13716 154.842462-124.298462 220.975719-159.455928 21.756153 34.331592 32.643352 66.134474 32.643352 95.418375 0 16.755899-3.355802 35.783867-10.043079 57.127691-6.710387 21.342608-29.72299 72.196567-69.054836 152.553365-45.200546 93.753246-82.04382 182.487992-110.487252 266.172616-28.465324 83.70895-41.022518 133.086308-37.669149 148.155184 5.848023 26.801411 8.791495 45.19933 8.791496 55.243626 0 10.884766-3.357018 17.167012-10.044296 18.830925-15.068876 0-36.843274-9.196527-65.290354-27.617555-28.465324-18.407649-42.686432-44.360076-42.686432-77.843899 0-53.561468 21.53965-133.503503 64.659089-239.81151 43.103626-106.286113 97.718419-211.346185 163.849244-315.141294-46.044666 18.421029-94.598582 43.942881-145.643502 76.586233z" ></path></svg>
