<svg class="icon" viewBox="0 0 1024 1024" version="1.1" xmlns="http://www.w3.org/2000/svg" width="200" height="200"><path d="M512 500.9m-469.5 0a469.5 469.5 0 1 0 939 0 469.5 469.5 0 1 0-939 0Z" ></path><path d="M680.8 513.3c0.1-0.2 0.1-0.4 0.2-0.6 3.8-10.9 2.9-23.4-3.5-34.1-5.1-8.6-12.9-14.7-21.6-17.8l-220-127c-5.9-3.4-12.3-5.2-18.6-5.4-0.4-0.1-0.7-0.1-1-0.1-0.8 0-1.7 0-2.5 0.1-13.5 0.6-26.5 7.8-33.8 20.4-5.2 9-6.6 19.2-4.7 28.6v253.5c0 6.4 1.5 12.5 4.1 18 0.7 1.6 1.4 3.1 2.3 4.6 11.5 19.5 36.6 25.9 56.1 14.4l219.6-129.8c8.2-3.3 15.3-9.2 20-17.5 1.3-2.3 2.4-4.7 3.3-7.1 0.1-0.1 0.1-0.1 0.1-0.2z" fill="#FFFFFF"></path></svg>
