<svg t="1624457877565" class="icon" viewBox="0 0 1024 1024" version="1.1" xmlns="http://www.w3.org/2000/svg" p-id="4334" width="100" height="100"><path d="M504.57971 7.42029a22.26087 22.26087 0 0 1 22.156986 20.123826L526.84058 29.681159v111.957334C714.039652 152.724406 863.870145 302.569739 874.956058 489.73913H994.318841l2.137043 0.103884A22.26087 22.26087 0 0 1 994.318841 534.26087h-119.377624C863.855304 721.459942 714.024812 871.290435 526.84058 882.376348L526.84058 994.318841a22.26087 22.26087 0 0 1-44.417855 2.137043L482.318841 994.318841v-111.957334C295.149449 871.275594 145.289275 721.430261 134.218203 534.26087H29.681159l-2.137043-0.103884A22.26087 22.26087 0 0 1 29.681159 489.73913h104.537044C145.304116 302.569739 295.149449 152.709565 482.318841 141.638493V29.681159A22.26087 22.26087 0 0 1 504.57971 7.42029z m0 178.086956c-180.313043 0-326.492754 146.17971-326.492753 326.492754s146.17971 326.492754 326.492753 326.492754 326.492754-146.17971 326.492754-326.492754-146.17971-326.492754-326.492754-326.492754zM504.57971 371.014493c81.964522 0 148.405797 66.441275 148.405797 148.405797s-66.441275 148.405797-148.405797 148.405797-148.405797-66.441275-148.405797-148.405797 66.441275-148.405797 148.405797-148.405797z" p-id="4335"></path></svg>
