<svg xmlns="http://www.w3.org/2000/svg" width="24" height="24" viewBox="0 0 24 24">
<path d="M6.09 18h-.09c-3.313 0-6-2.687-6-6s2.687-6 6-6h2v-3l6 4-6 4v-3h-2c-2.206 0-4 1.794-4 4s1.794 4 4 4h.09c-.055.326-.09.658-.09 1s.035.674.09 1zm11.91-12h-2v2h2c2.206 0 4 1.794 4 4s-1.794 4-4 4h-.09c.055.326.09.658.09 1s-.035.674-.09 1h.09c3.313 0 6-2.687 6-6s-2.687-6-6-6zm-6 7c-2.209 0-4 1.791-4 3.999 0 2.209 1.791 4.001 4 4.001s4-1.792 4-4.001c0-2.208-1.791-3.999-4-3.999zm1.016 6.188h-1.055v-3.109c-.022 0-.884.413-.904.423l-.179-.936 1.241-.574h.896v4.196z"/></svg>
