<svg width="1024" height="550" xmlns="http://www.w3.org/2000/svg" class="icon">
  <path id="svg_1" d="m406.829597,235.500598c-0.54849,-0.04297 -1.03252,-0.30392 -1.58101,-0.30392l-90.78261,0c-19.49603,0 -35.32555,-15.67807 -35.32555,-34.91418s15.82952,-34.8927 35.32555,-34.8927c0.7245,0 1.33951,-0.3469 2.02001,-0.41136c0.70301,0.06446 1.31597,0.41136 2.0415,0.41136l135.11018,0c12.14051,0 21.95401,-9.71424 21.95401,-21.68692c0,-11.96962 -9.8135,-21.68489 -21.95401,-21.68489l-135.11121,0c-0.72552,0 -1.33951,0.32541 -2.0415,0.38988c-0.68152,-0.06446 -1.2955,-0.38988 -2.02,-0.38988c-43.69108,0 -79.23562,35.10964 -79.23562,78.26348c0,40.03072 30.69202,72.77652 69.99209,77.35274c1.55952,0.34691 2.98601,0.93326 4.63353,0.93326l93.83411,0c19.47454,0 35.32556,15.65658 35.32556,34.89269c0,19.23407 -15.85102,34.8927 -35.32556,34.8927l-146.50368,0c-12.14152,0 -21.95605,9.71424 -21.95605,21.68488c0,11.99213 9.8135,21.68693 21.95605,21.68693l150.85171,0c1.55747,0 2.91949,-0.56487 4.3685,-0.86777c39.56306,-4.35826 70.5191,-37.19001 70.5191,-77.39571c-0.00001,-42.0937 -33.89907,-76.2926 -76.0951,-77.96059z"/>
  <path id="svg_2" d="m773.81391,378.446576c7.39748,-10.318 11.78235,-22.7962 11.78235,-36.29156l0,-142.04309c0,-35.30406 -29.61653,-63.90751 -66.17209,-63.90751l-131.00469,0c-36.53407,0 -66.17209,28.60345 -66.17209,63.90751l0,142.04207c0,35.28257 29.63904,63.90752 66.17209,63.90752l131.00469,0c6.14495,0 11.97677,-1.06936 17.62031,-2.58283l13.56904,13.30196c4.259,4.20681 9.85853,6.31073 15.45601,6.31073c5.64251,0 11.30651,-2.1469 15.587,-6.4192c8.54052,-8.50061 8.49754,-22.22826 -0.13098,-30.66337l-7.71164,-7.56223zm-32.12772,-36.29258c0,1.39476 -0.57407,2.61761 -0.86367,3.93666l-24.01904,-23.55549c-8.56303,-8.41464 -22.50455,-8.37064 -31.04506,0.12996c-8.53949,8.50061 -8.49651,22.22826 0.132,30.66337l9.54847,9.36121l-107.01941,0c-12.27251,0 -22.26202,-9.2159 -22.26202,-20.53571l0,-142.04207c0,-11.31981 9.98951,-20.5357 22.26202,-20.5357l131.00469,0c12.27251,0 22.26202,9.21589 22.26202,20.5357l0,142.04207z"/>
  <path id="svg_3" d="m865.96878,15.845186l-707.9396,0c-52.20295,0 -94.23729,42.34748 -94.23729,94.58521l0,329.80647c0,52.11597 42.19091,94.58522 94.23729,94.58522l707.94062,0c52.20499,0 94.23831,-42.34748 94.23831,-94.58522l0.00001,-329.80647c0,-52.11494 -42.19297,-94.58521 -94.23934,-94.58521zm47.0598,424.39168c0,26.13934 -21.1108,47.40569 -47.05878,47.40569l-707.94062,0c-25.94798,0 -47.05776,-21.26635 -47.05776,-47.40569l0,-329.80647c0,-26.13933 21.10876,-47.40568 47.05776,-47.40568l707.94062,0c25.94798,0 47.05878,21.26635 47.05878,47.40568l0,329.80647z"/>
</svg>
