<svg  class="icon" viewBox="0 0 1024 1024" version="1.1" xmlns="http://www.w3.org/2000/svg" width="200" height="200"><path d="M392.920728 349.593301c-17.593937-8.460659-26.390298-23.457772-26.390298-44.960933 0-34.529851 24.098768-61.898063 72.327929-82.102204 48.214565-20.189545 108.492501-30.299521 180.821647-30.299521 102.949773 0 154.431349 37.142487 154.431348 111.425027 0 16.951725-2.61142 31.765176-7.819663 44.471976-5.222839 12.7068-13.042502 24.11458-23.457772 34.208745-10.429866 10.111193-21.012987 18.418596-31.765176 24.924643-10.752189 6.520643-36.501491 15.31822-77.216282 26.390298-40.729387 11.08789-98.22927 24.435686-172.513027 40.073796 85.357051 7.819663 141.06774 22.32782 167.138149 43.495278 26.054596 21.182055 39.097098 46.427804 39.097098 75.749412 0 28.680611-12.553545 59.622345-37.630227 92.854392-25.092494 33.232047-64.508266 60.111302-118.266776 80.636549s-106.705741 30.788478-158.829529 30.788478c-42.365326 0-75.596156-6.842965-99.696141-20.526463s-36.164573-30.620627-36.164573-50.824768c0-16.93713 7.987514-35.507765 23.94673-55.713122 15.959216-20.190761 29.810564-30.299521 41.53945-30.299521 4.551435 0 6.841749 2.290313 6.841749 6.841749 0 3.268227-1.633506 6.841749-4.887137 10.752188-3.268227 3.909223-4.887137 7.498557-4.887137 10.750972 0 7.819663 7.482745 14.340306 22.479858 19.548549 14.981302 5.222839 35.186659 7.819663 60.600259 7.819663 58.644431 0 114.357553-12.7068 167.136932-38.119184 52.781812-25.4136 79.17211-50.825984 79.172111-76.239585 0-19.547333-13.684714-33.384086-41.052926-41.53945-27.366996-8.139553-65.48618-12.217843-114.357553-12.217843-39.097098 0-71.351231 3.269444-96.763615 9.774274-4.566031 0-6.841749-4.887137-6.841749-14.661412 0-14.324494 3.741372-30.788478 11.239929-49.360329 7.482745-18.570635 15.959216-30.13167 25.4136-34.697702 9.437356-4.551435 30.788478-9.438573 64.020526-14.661412 97.084721-14.981302 166.649192-32.407388 208.678815-52.291639 42.028408-19.868439 63.042611-40.227051 63.042611-61.087999 0-11.728886-7.987514-21.014204-23.946729-27.855953-15.973811-6.841749-38.606925-10.263232-67.930965-10.263232-48.227944 0-89.921866 3.755968-125.108525 11.23993-35.186659 7.498557-52.780596 15.150369-52.780596 22.968815 0 3.909223 1.786761 7.330706 5.374878 10.263232 3.573521 2.932526 12.217843 6.68971 25.901341 11.239929 1.954612 0 3.909223 1.145765 5.863835 3.421482 1.954612 2.29153 2.932526 4.735098 2.932526 7.330706 0.001216 7.819663-33.230831 11.408996-99.694925 10.752189z"></path></svg>
