<svg t="1624458056096" class="icon" viewBox="0 0 1024 1024" version="1.1" xmlns="http://www.w3.org/2000/svg" p-id="1652" width="100" height="100"><path d="M586.857931 179.288276l3.283862 3.142621L954.438621 546.745379a26.482759 26.482759 0 0 1-35.451587 39.265104l-2.012689-1.818483-364.296828-364.296828a57.502897 57.502897 0 0 0-14.212414-10.416551V988.689655a26.482759 26.482759 0 1 1-52.965517 0V209.460966a57.344 57.344 0 0 0-11.652414 8.015448l-2.56 2.418758L107.008 584.192a26.482759 26.482759 0 0 1-39.282759-35.433931l1.818483-2.01269 364.314483-364.314482a110.521379 110.521379 0 0 1 152.999724-3.142621zM944.551724 0a26.482759 26.482759 0 1 1 0 52.965517h-865.103448a26.482759 26.482759 0 1 1 0-52.965517h865.103448z" p-id="1653"></path></svg>
