<svg  class="icon" viewBox="0 0 1024 1024" version="1.1" xmlns="http://www.w3.org/2000/svg" width="200" height="200"><path d="M394.863177 364.42378c31.277435 0.656808 54.567357 2.61142 69.885576 5.865051 15.302408 3.268227 22.968815 9.132062 22.968816 17.592721 0 3.909223-3.421483 7.177451-10.263232 9.774275-6.841749 2.61142-27.366996 7.330706-61.576956 14.172455-34.209961 6.841749-54.247467 10.263232-60.111302 10.263231-10.431082 0-15.638109-7.819663-15.63811-23.457772 0-13.683498 2.763458-30.941733 8.30862-51.802682 5.528133-20.846353 13.02669-40.716008 22.479859-59.622345 9.438573-18.891741 19.868439-33.064196 31.277435-42.517365 11.393184-9.438573 32.74309-19.211631 64.020525-29.322823 31.277435-10.094164 63.852674-18.234933 97.740313-24.43447 33.874259-6.184941 62.219169-9.285318 85.034729-9.285318 14.982518 0 25.73349 1.466871 32.256566 4.39818 6.504831 2.932526 14.980085 17.440682 25.412384 43.495279 10.41527 26.069192 15.638109 52.45949 15.638109 79.170894 0 33.232047-7.986297 61.576957-23.946729 85.034729-15.975028 23.457772-37.310337 44.639827-64.020526 63.531568-26.727216 18.906337-67.442008 45.296635-122.177215 79.169678-133.583779 82.759011-204.613904 132.928188-213.07578 150.520909 30.620627-2.595608 72.481184-8.948399 125.597482-19.059592 53.101702-10.094164 98.872698-19.868439 137.326368-29.321608 38.44029-9.438573 57.988839-14.172455 58.645648-14.172455 5.863835 0 8.796361 3.91044 8.79636 11.730103 0 20.204141-8.476471 43.174172-25.4136 68.907662-16.952942 25.748086-47.083396 45.128784-90.410823 58.155474-43.342023 13.042502-99.863992 19.547333-169.581718 19.547333-20.205357 0-36.820164-2.275718-49.84807-6.841749-13.042502-4.551435-23.457772-18.891741-31.277436-43.005105-7.819663-24.099985-11.728886-40.073796-11.728886-47.893459 0-14.982518 7.651812-34.209961 22.968816-57.667733 15.302408-23.457772 37.630227-48.534455 66.953051-75.260454 29.321607-26.711404 63.195866-51.145874 101.650752-73.305843l101.650753-58.644431a33442.938227 33442.938227 0 0 1 56.689819-33.232047c7.818447-4.551435 18.72389-13.195757 32.74309-25.901341 14.004604-12.7068 24.435686-24.267835 31.277435-34.697702 6.841749-10.41527 10.263232-19.211631 10.263232-26.390298 0-9.774275-4.39818-16.93713-13.194541-21.503161-8.796361-4.551435-18.082894-6.841749-27.855953-6.841748-31.93546 0-71.351231 8.476471-118.266776 25.4136-46.914328 16.949293-87.323826 39.429151-121.198085 67.438359z" ></path></svg>
