<svg class="icon" viewBox="0 0 1024 1024" version="1.1" xmlns="http://www.w3.org/2000/svg" width="200" height="200"><path d="M511.2 219.6L174.5 556.3c-25 25-65.4 25-90.4 0-24.9-25-24.9-65.4 0-90.4L463.4 86.6c0.8-0.9 1.7-1.8 2.5-2.7 25-25 65.4-25 90.4 0l381.3 381.3c25 25 25 65.4 0 90.4s-65.4 25-90.4 0l-336-336z" ></path><path d="M511.5 601.6L174.8 938.3c-25 25-65.4 25-90.4 0-24.9-25-24.9-65.4 0-90.4l379.3-379.3c0.8-0.9 1.7-1.8 2.5-2.7 25-25 65.4-25 90.4 0l381.3 381.3c25 25 25 65.4 0 90.4s-65.4 25-90.4 0l-336-336z"></path></svg>
