<svg  viewBox="0 0 1024 1024" version="1.1" xmlns="http://www.w3.org/2000/svg"  width="24" height="24"><path d="M964.608 234.496c-46.08-52.565333-104.789333-93.696-169.642667-118.784a34.030933 34.030933 0 0 0-46.421333 31.744v420.352a178.005333 178.005333 0 0 0-110.933333-38.741333c-98.816 0-179.2 80.384-179.2 179.2S538.794667 887.466667 637.610667 887.466667s179.2-80.384 179.2-179.2c0-1.877333-0.170667-3.754667-0.341334-5.632 0-1.024 0.341333-1.877333 0.341334-2.901334V201.216c36.181333 20.309333 69.12 46.933333 96.597333 78.165333 12.458667 14.165333 34.133333 15.530667 48.128 3.072 14.165333-12.288 15.530667-33.792 3.072-47.957333zM637.610667 819.2c-61.098667 0-110.933333-49.834667-110.933334-110.933333s49.834667-110.933333 110.933334-110.933334 110.933333 49.834667 110.933333 110.933334-49.834667 110.933333-110.933333 110.933333zM185.344 307.2h392.533333c18.773333 0 34.133333-15.36 34.133334-34.133333s-15.36-34.133333-34.133334-34.133334h-392.533333a34.133333 34.133333 0 1 0 0 68.266667zM424.277333 460.8h-238.933333c-18.773333 0-34.133333 15.36-34.133333 34.133333s15.36 34.133333 34.133333 34.133334h238.933333c18.773333 0 34.133333-15.36 34.133334-34.133334s-15.36-34.133333-34.133334-34.133333zM321.877333 682.666667h-136.533333c-18.773333 0-34.133333 15.36-34.133333 34.133333s15.36 34.133333 34.133333 34.133333h136.533333c18.773333 0 34.133333-15.36 34.133334-34.133333s-15.36-34.133333-34.133334-34.133333z" p-id="4516"></path></svg>
